<?xml version="1.0" encoding="UTF-8" standalone="no"?>
<!-- Created with Inkscape (http://www.inkscape.org/) -->

<svg
   xmlns:dc="http://purl.org/dc/elements/1.1/"
   xmlns:cc="http://creativecommons.org/ns#"
   xmlns:rdf="http://www.w3.org/1999/02/22-rdf-syntax-ns#"
   xmlns:svg="http://www.w3.org/2000/svg"
   xmlns="http://www.w3.org/2000/svg"
   xmlns:sodipodi="http://sodipodi.sourceforge.net/DTD/sodipodi-0.dtd"
   xmlns:inkscape="http://www.inkscape.org/namespaces/inkscape"
   id="svg4136"
   version="1.1"
   inkscape:version="0.91 r13725"
   width="215"
   height="234"
   viewBox="0 0 215 234"
   sodipodi:docname="sensor.svg">
  <metadata
     id="metadata4142">
    <rdf:RDF>
      <cc:Work
         rdf:about="">
        <dc:format>image/svg+xml</dc:format>
        <dc:type
           rdf:resource="http://purl.org/dc/dcmitype/StillImage" />
        <dc:title></dc:title>
      </cc:Work>
    </rdf:RDF>
  </metadata>
  <defs
     id="defs4140" />
  <sodipodi:namedview
     pagecolor="#ffffff"
     bordercolor="#666666"
     borderopacity="1"
     objecttolerance="10"
     gridtolerance="10"
     guidetolerance="10"
     inkscape:pageopacity="0"
     inkscape:pageshadow="2"
     inkscape:window-width="1680"
     inkscape:window-height="988"
     id="namedview4138"
     showgrid="false"
     inkscape:zoom="3.465812"
     inkscape:cx="107.5"
     inkscape:cy="117"
     inkscape:window-x="1672"
     inkscape:window-y="-8"
     inkscape:window-maximized="1"
     inkscape:current-layer="svg4136" />
  <path
     style="fill:#000000"
     d="m 157.68049,225.42016 -10.67916,-7.57984 6.66332,-7.64013 c 19.00271,-21.78843 29.50687,-48.16203 32.38535,-81.31242 l 1.06424,-12.25652 -1.05502,-12.34551 C 183.17866,70.578287 171.67346,42.298138 152.7243,22.347402 l -6.79352,-7.152599 10.23361,-6.7051506 c 5.62849,-3.687833 10.7587,-6.9066451 11.40047,-7.1529158 1.66057,-0.63721833 11.56116,10.5927274 18.61645,21.1160654 41.33531,61.653868 36.86858,146.579508 -10.71887,203.797198 -6.80871,8.18659 -4.95705,8.273 -17.78195,-0.82984 z m -46.81315,-33.20805 -10.63266,-7.68847 4.89186,-5.35247 c 10.00683,-10.94906 17.47221,-27.14712 20.49825,-44.47619 l 1.60565,-9.19498 -0.54207,-12.5 -0.54207,-12.5 -2.14101,-8 C 119.77434,76.690811 109.3637,58.64068 99.944678,50.783349 L 96.008747,47.5 107.9603,39.79858 l 11.95155,-7.70142 5.79407,6.333604 c 14.78962,16.166787 24.72697,40.880189 27.21131,67.672396 L 153.97402,117.5 153.03698,128 c -2.30297,25.80584 -9.67469,46.08989 -23.35002,64.25 -7.05246,9.36529 -5.81216,9.36779 -18.81962,-0.0379 z m -46.998081,-33.3843 -9.630742,-7.01541 3.407333,-5.1562 c 4.310911,-6.52356 8.068352,-18.28931 8.87596,-27.79348 L 67.147449,111.5 65.668262,103.99228 C 63.980608,95.426467 60.562941,87.132007 55.971213,80.458159 54.231015,77.928869 52.963093,75.716017 53.153609,75.540711 53.344124,75.365405 57.775,72.467959 63,69.101942 l 9.5,-6.12003 3.243491,3.759044 c 4.60619,5.338345 10.761437,17.538199 13.262402,26.286412 l 2.136298,7.472632 0.560842,10.54584 0.560842,10.54584 -1.689255,8.33682 c -2.413504,11.91113 -14.032367,36.79737 -16.804431,35.99311 -0.148604,-0.0431 -4.604023,-3.23532 -9.90093,-7.0938 z M 14.119616,131.84743 C 8.9953299,130.3737 6.1734525,128.15211 3.3875877,123.3984 l -2.53044484,-4.31788 0,-5.45179 0,-5.45179 1.52034544,-2.94003 c 0.83619,-1.61701 3.1087115,-4.33463 5.0500477,-6.039142 l 3.529702,-3.09912 3.583854,-0.672335 c 1.971119,-0.369784 5.614353,-0.443468 8.096076,-0.163742 l 4.512222,0.508593 3.675305,2.93552 c 2.021418,1.614536 4.462106,4.478526 5.423751,6.364416 l 1.748446,3.4289 0.0016,5.29966 0.0016,5.29966 -1.448917,2.8019 c -4.223275,8.16691 -13.820967,12.42257 -22.431467,9.94621 z"
     id="path4146"
     inkscape:connector-curvature="0" />
</svg>
